# xmcd
#
# Track frame offsets: 
#        150
#        19169
#        31889
#        47369
#        63463
#        77337
#        93691
#        106203
#        119935
#        136759
#        152410
#        164430
#        184305
#
# Disc length: 2668 seconds
#
# Revision: 2
# Processed by: cddbd v1.5.2PL0 Copyright (c) Steve Scherf et al.
# Submitted via: ExactAudioCopyFreeDBPlugin 1.0
#
DISCID=a30a6a0d
DTITLE=Ike and Tina Turner - The Collection [Entertain Me Europe]
DYEAR=2008
DGENRE=Rhythm and Blues
TTITLE0=Took a Trip
TTITLE1=Why Oh Why
TTITLE2=Hully Gully I (vocal)
TTITLE3=Hully Gully II (instrumental)
TTITLE4=Mississippi Rolling Stone
TTITLE5=Play Your Piano
TTITLE6=Keep on Using Me
TTITLE7=I Know
TTITLE8=Early in the Morning
TTITLE9=Leave Me Alone, Let Me Be
TTITLE10=Ain't That a Shame
TTITLE11=I'm Ripe
TTITLE12=(Still Keep) Missing You (live)
EXTD=
EXTT0=
EXTT1=
EXTT2=
EXTT3=
EXTT4=
EXTT5=
EXTT6=
EXTT7=
EXTT8=
EXTT9=
EXTT10=
EXTT11=
EXTT12=
PLAYORDER=
